<?xml version="1.0" standalone="no"?>
<!DOCTYPE svg PUBLIC "-//W3C//DTD SVG 20010904//EN"
 "http://www.w3.org/TR/2001/REC-SVG-20010904/DTD/svg10.dtd">
<svg version="1.0" xmlns="http://www.w3.org/2000/svg"
 width="1024.000000pt" height="1024.000000pt" viewBox="0 0 1024.000000 1024.000000"
 preserveAspectRatio="xMidYMid meet">
<metadata>
Created by potrace 1.11, written by Peter Selinger 2001-2013
</metadata>
<g transform="translate(0.000000,1024.000000) scale(0.100000,-0.100000)"
fill="#000000" stroke="none">
<path d="M854 10224 c-111 -18 -261 -74 -358 -131 -105 -63 -252 -204 -322
-309 -62 -93 -124 -235 -151 -346 -17 -69 -18 -291 -21 -4268 -3 -3207 -1
-4215 9 -4280 32 -231 135 -435 301 -596 141 -137 313 -231 501 -271 78 -17
297 -18 4307 -18 4010 0 4229 1 4307 18 194 42 379 144 519 289 152 155 241
330 279 548 13 74 15 606 15 4255 0 3670 -2 4181 -15 4263 -36 224 -141 421
-311 583 -146 140 -330 230 -539 264 -130 21 -8395 21 -8521 -1z m4676 -824
c197 -11 337 -39 466 -94 272 -117 459 -309 577 -597 75 -180 176 -512 796
-2619 l639 -2175 7 -200 c3 -110 12 -369 20 -575 32 -844 28 -1443 -11 -1670
-63 -365 -246 -565 -576 -631 -38 -8 -137 -13 -248 -13 -156 1 -199 4 -275 23
-254 62 -411 203 -498 448 -61 170 -77 393 -77 1106 l0 497 -1225 0 -1225 0 0
-487 c0 -731 -17 -960 -84 -1137 -87 -229 -245 -366 -491 -428 -78 -19 -116
-22 -290 -21 -181 0 -209 3 -296 26 -323 85 -485 301 -531 707 -17 153 -14
1187 6 1830 l17 535 134 460 c154 528 311 1054 554 1847 196 642 328 1083 506
1698 236 815 293 947 500 1155 201 201 431 296 765 314 194 11 659 12 840 1z"/>
<path d="M5060 7805 c0 -3 -202 -739 -450 -1636 -247 -896 -450 -1632 -450
-1634 0 -3 437 -5 970 -5 571 0 970 4 970 9 0 7 -875 3185 -896 3254 -4 14
-17 17 -75 17 -38 0 -69 -2 -69 -5z"/>
</g>
</svg>
